<svg width="269" height="292" viewBox="0 0 269 292" fill="none" xmlns="http://www.w3.org/2000/svg">
<path d="M203.127 284.475C193.215 278.938 185.881 269.722 182.709 258.82C162.656 266.606 141.017 269.429 119.637 267.047C98.2567 264.665 77.7694 257.15 59.9208 245.141C-1.1354 204.067 -17.3912 120.977 23.6835 59.9208C64.7582 -1.13588 147.848 -17.3902 208.904 23.6835C269.807 64.6556 286.133 147.434 245.447 208.447C250.499 211.245 254.947 215.015 258.534 219.541C262.12 224.067 264.775 229.258 266.345 234.815C267.886 240.317 268.329 246.068 267.647 251.741C266.966 257.413 265.174 262.896 262.374 267.876C259.573 272.856 255.819 277.236 251.326 280.766C246.834 284.295 241.689 286.905 236.188 288.446C230.688 290.002 224.935 290.452 219.26 289.77C213.585 289.089 208.102 287.289 203.127 284.475V284.475Z" fill="white"/>
<path d="M207.982 273.413C201.053 269.074 196.027 262.268 193.921 254.368C193.511 252.905 192.799 251.546 191.831 250.376C190.863 249.206 189.661 248.252 188.301 247.576C186.942 246.899 185.456 246.516 183.939 246.449C182.422 246.383 180.908 246.636 179.495 247.191L178.833 247.452C151.8 258.074 121.856 258.658 94.4306 249.097C67.0049 239.535 43.9136 220.462 29.3442 195.336C14.7749 170.21 9.69219 140.695 15.0178 112.142C20.3435 83.5903 35.7249 57.892 58.3726 39.7078C81.0204 21.5235 109.435 12.0575 138.463 13.0262C167.492 13.995 195.212 25.3344 216.597 44.9881C237.982 64.6418 251.616 91.3084 255.026 120.152C258.436 148.996 251.397 178.107 235.185 202.205L234.79 202.792C233.943 204.053 233.368 205.477 233.105 206.973C232.842 208.469 232.895 210.003 233.262 211.477C233.629 212.951 234.301 214.332 235.234 215.53C236.168 216.728 237.342 217.717 238.682 218.433C242.547 220.457 245.966 223.238 248.734 226.611C251.502 229.984 253.563 233.88 254.793 238.066C256.073 242.637 256.303 247.438 255.467 252.11C254.631 256.783 252.751 261.206 249.966 265.05C246.39 270.034 241.414 273.845 235.67 275.999C232.074 277.361 228.262 278.061 224.417 278.065C218.615 278.061 212.926 276.451 207.982 273.413V273.413Z" fill="#F0F0F0"/>
<path d="M202.637 285.347C201.119 284.494 199.652 283.554 198.243 282.533C183.09 271.539 165.211 266.447 147.903 268.191C116.703 271.312 85.3918 263.454 59.3628 245.971C-2.15067 204.589 -18.5286 120.876 22.8538 59.3627C64.2358 -2.15053 147.948 -18.5289 209.462 22.8539C234.942 40.0429 253.777 65.4297 262.838 94.7993C271.9 124.169 270.644 155.754 259.279 184.312C256.729 190.592 255.678 197.38 256.21 204.137C256.742 210.894 258.843 217.435 262.345 223.238C265.942 229.078 268.14 235.67 268.767 242.5C269.394 249.33 268.433 256.212 265.96 262.61C263.487 269.007 259.568 274.746 254.51 279.378C249.452 284.01 243.391 287.409 236.801 289.311C232.766 290.48 228.586 291.075 224.385 291.079V291.079C216.764 291.063 209.276 289.089 202.637 285.347V285.347ZM25.3429 61.0375C9.69623 84.2956 1.89407 111.946 3.07553 139.953C4.25698 167.96 14.3602 194.855 31.9101 216.713C49.46 238.571 73.5375 254.246 100.627 261.45C127.717 268.655 156.401 267.011 182.49 256.759L184.036 256.151L184.483 257.75C187.453 268.35 194.512 277.337 204.107 282.732C213.703 288.128 225.049 289.49 235.649 286.52C246.249 283.551 255.235 276.492 260.631 266.896C266.026 257.301 267.389 245.955 264.419 235.355C262.898 229.968 260.308 224.942 256.803 220.577C253.298 216.212 248.951 212.597 244.019 209.948L242.556 209.165L243.482 207.787C262.929 178.86 270.09 143.394 263.392 109.187C256.694 74.9803 236.685 44.8343 207.764 25.3782C178.843 5.92201 143.379 -1.25123 109.17 5.43585C74.9609 12.1229 44.8084 32.1228 25.3429 61.0375H25.3429Z" fill="#3F3D56"/>
<path d="M189.248 150.086C197.85 150.086 204.823 143.112 204.823 134.51C204.823 125.908 197.85 118.935 189.248 118.935C180.646 118.935 173.672 125.908 173.672 134.51C173.672 143.112 180.646 150.086 189.248 150.086Z" fill="#2F5AD8"/>
<path d="M136.108 150.086C144.71 150.086 151.684 143.112 151.684 134.51C151.684 125.908 144.71 118.935 136.108 118.935C127.506 118.935 120.533 125.908 120.533 134.51C120.533 143.112 127.506 150.086 136.108 150.086Z" fill="#2F5AD8"/>
<path d="M82.9682 150.086C91.5703 150.086 98.5437 143.112 98.5437 134.51C98.5437 125.908 91.5703 118.935 82.9682 118.935C74.3661 118.935 67.3927 125.908 67.3927 134.51C67.3927 143.112 74.3661 150.086 82.9682 150.086Z" fill="#2F5AD8"/>
</svg>
